<svg width="138" height="21" viewBox="0 0 138 21" fill="none" xmlns="http://www.w3.org/2000/svg">
<g clip-path="url(#clip0_12166_63)">
<path d="M27.5941 20.9124H36.8019L32.198 10.5293H23.0049L27.5941 20.9124Z" fill="#9DBC99"/>
<path d="M23.0048 10.5293H13.797L18.4009 0.160919H27.5941L23.0048 10.5293Z" fill="#86ABBF"/>
<path d="M18.4009 20.9124H9.1931L4.60388 10.5293H13.797L18.4009 20.9124Z" fill="#B990B1"/>
<path d="M13.7971 10.5293H4.60392L0 0.160919H9.19313L13.7971 10.5293Z" fill="#F7BCCF"/>
<path d="M18.4011 20.9124H9.19324L13.7972 10.5293H23.005L18.4011 20.9124Z" fill="#D8A8CD"/>
<path d="M41.4059 10.5293H32.1981L36.802 0.160919H45.9951L41.4059 10.5293Z" fill="#F9E1A4"/>
<path d="M32.1981 10.5293H23.0049L18.401 0.160919H27.5941L32.1981 10.5293Z" fill="#ACD7F3"/>
<path d="M27.5941 20.8977L36.7872 20.9124L41.4059 10.544L32.2127 10.5293L27.5941 20.8977Z" fill="#BADDB0"/>
<path d="M6.89856 6.37611C6.94269 6.87332 6.9721 7.35592 7.01623 7.85313C7.04565 8.11636 6.9721 8.17486 6.72205 8.07249C6.54554 7.99937 6.36903 7.91163 6.19253 7.83851C6.04544 7.76539 5.94247 7.66302 5.91306 7.50215C5.88364 7.34129 5.95718 7.29742 6.08956 7.31204C6.16311 7.32667 6.23665 7.34129 6.32491 7.37054C6.29549 7.04881 6.28078 6.74171 6.25136 6.43461C6.23665 6.22987 6.22194 6.01051 6.19253 5.80578C6.16311 5.57179 6.26607 5.49867 6.44258 5.49867C6.64851 5.49867 6.83972 5.49867 7.04565 5.49867C7.10449 5.49867 7.14861 5.48405 7.20745 5.48405C7.17803 5.39631 7.14861 5.32319 7.11919 5.25007C6.95739 4.86984 6.78089 4.50424 6.61909 4.12402C6.48671 3.8023 6.51612 3.62681 6.72205 3.53906C6.88385 3.46594 7.14861 3.56831 7.35454 3.78767C7.42808 3.87541 7.48692 3.97778 7.53105 4.06553C7.79581 4.65048 8.04586 5.22082 8.31062 5.80578C8.45771 6.1275 8.36946 6.39073 8.11941 6.39073C7.73697 6.37611 7.32512 6.37611 6.89856 6.37611Z" fill="#707886"/>
<path d="M8.50179 5.49855C8.41354 5.30844 8.33999 5.11832 8.23703 4.91359C8.5165 5.01596 8.76655 5.19144 9.0019 5.42543C10.3404 6.65384 10.6787 8.56958 9.60497 8.87668C9.01661 9.05217 8.14878 8.6427 7.44274 7.88225C7.32507 7.76526 7.26623 7.66289 7.26623 7.53128C7.26623 7.38504 7.25153 7.22417 7.23682 7.01944C7.76634 7.80913 8.3547 8.29172 8.98719 8.36484C9.3255 8.39409 9.53142 8.23323 9.6638 7.97C9.92857 7.39966 9.51671 6.25899 8.50179 5.49855Z" fill="#707886"/>
<path d="M6.07485 1.76949C6.33961 1.711 6.83972 2.13509 6.98681 2.52994C7.14861 2.95403 7.06035 3.24651 6.73676 3.27576C6.47199 3.29038 5.9866 2.95403 5.81009 2.50069C5.64829 2.06197 5.73654 1.76949 6.07485 1.76949Z" fill="#707886"/>
<path d="M16.6211 17.0516C16.5329 16.8908 16.4005 16.7445 16.3858 16.5398C16.3564 16.3058 16.4152 15.9987 16.4593 15.7209C16.5182 15.3406 16.6211 14.9458 16.6947 14.5509C16.7094 14.4924 16.68 14.4339 16.68 14.3754C16.6506 14.3901 16.6211 14.4047 16.5917 14.4193C16.2975 15.3406 16.1063 16.2327 15.8269 17.1979C15.7092 17.2125 15.5915 17.2417 15.4444 17.2564C15.415 17.3295 15.3856 17.4026 15.3562 17.4757C15.1208 18.0168 14.8708 18.5725 14.6354 19.1136C14.5325 19.3622 14.3854 19.5085 14.2383 19.5377C14.0029 19.5962 13.9294 19.4353 14.0618 19.1429C14.3118 18.5871 14.5619 18.0168 14.8119 17.4611C14.8413 17.388 14.8708 17.3295 14.9149 17.2417C14.8561 17.2417 14.8119 17.2417 14.7384 17.2417C14.6648 17.388 14.606 17.5342 14.5472 17.6658C14.3265 18.1631 14.1059 18.6603 13.9 19.1575C13.797 19.3915 13.6205 19.5377 13.4587 19.5523C13.3116 19.5523 13.2675 19.3768 13.3704 19.1575C13.6646 18.5287 13.9294 17.8998 14.2236 17.2417C14.1206 17.2271 14.0176 17.2271 13.8853 17.2125C13.9294 17.1248 13.9441 17.0516 13.9882 16.9785C14.4589 16.2327 14.9149 15.4869 15.3856 14.7557C15.4297 14.6826 15.4885 14.6094 15.518 14.5363C15.5474 14.4778 15.5327 14.4193 15.5474 14.3754C15.5327 14.3754 15.518 14.3754 15.5033 14.3754C15.4591 14.4339 15.4003 14.5071 15.3562 14.5656C15.0031 15.0774 14.6648 15.6039 14.3118 16.1157C14.2236 16.2473 14.1206 16.3351 14.0029 16.3351C13.8853 16.3497 13.8558 16.2766 13.8706 16.1596C13.8706 16.1011 13.9 16.028 13.9441 15.9841C14.3854 15.3406 14.8119 14.6972 15.2532 14.0537C15.4738 13.732 15.8857 13.4688 16.1357 13.4834C16.3711 13.498 16.6064 13.498 16.8565 13.4834C17.2242 13.4541 17.3566 13.7612 17.2683 14.2C17.136 14.7703 17.0183 15.326 16.9006 15.8963C16.8271 16.2766 16.9447 16.5252 17.2389 16.5398C17.3713 16.5544 17.5184 16.5544 17.6655 16.5105C17.9597 16.4228 18.2538 16.2181 18.4745 15.8525C18.5774 15.6916 18.6951 15.6477 18.7834 15.6916C18.8569 15.7355 18.8716 15.8525 18.7687 15.9987C18.6657 16.1449 18.5774 16.2912 18.4598 16.4082C18.2685 16.5837 18.0479 16.7299 17.842 16.8908C17.7832 16.9346 17.7243 16.9639 17.6508 16.9931C17.3272 17.739 16.9889 18.4848 16.6653 19.2306C16.5623 19.4792 16.3564 19.6254 16.2534 19.5085C16.2093 19.4646 16.2093 19.3183 16.2534 19.216C16.3858 18.8796 16.5476 18.5579 16.6947 18.2215C16.7241 18.1631 16.7388 18.1046 16.7535 18.0314C16.7388 18.0314 16.7094 18.0314 16.6947 18.0314C16.6653 18.0899 16.6211 18.1631 16.5917 18.2215C16.4446 18.5433 16.3122 18.8796 16.1652 19.2014C16.0622 19.4207 15.9298 19.5523 15.7974 19.5523C15.6651 19.5523 15.6356 19.4207 15.7386 19.216C16.0475 18.5579 16.327 17.8998 16.6211 17.2417C16.6506 17.1686 16.6947 17.0809 16.7241 17.0078C16.6506 17.037 16.6358 17.0516 16.6211 17.0516ZM16.327 12.489C16.1357 12.8838 16.2534 13.264 16.5476 13.264C16.9006 13.2787 17.2978 12.9569 17.5037 12.5475C17.739 12.0941 17.6066 11.6846 17.283 11.7285C17.0036 11.6993 16.5917 11.9625 16.327 12.489ZM17.4301 16.3936C17.7243 16.3789 18.0185 16.1742 18.2244 15.7355C18.3862 15.3991 18.2685 15.0774 18.0038 15.1066C17.739 15.1359 17.4154 15.3553 17.2389 15.7501C17.033 16.1449 17.1654 16.4082 17.4301 16.3936Z" fill="#707886"/>
<path d="M39.3908 6.25915C39.3173 6.25915 39.2731 6.25915 39.2143 6.24453C39.1408 6.42001 39.0672 6.58088 38.9937 6.74174C38.6995 7.41444 38.4053 8.08715 38.1111 8.75985C37.9788 9.05233 37.8169 9.21319 37.6404 9.21319C37.4786 9.21319 37.4198 9.0962 37.5081 8.89146C37.5522 8.77447 37.611 8.65748 37.6699 8.52586C38.2876 7.13659 38.9054 5.74731 39.5232 4.35804C39.5526 4.28492 39.582 4.22642 39.6115 4.1533C39.5967 4.1533 39.5967 4.13868 39.582 4.13868C39.5232 4.19717 39.4644 4.27029 39.4055 4.32879C39.0672 4.78213 38.7436 5.23547 38.4053 5.68882C38.3612 5.74731 38.3023 5.82043 38.2582 5.87893C38.1405 6.01054 38.0229 6.06904 37.9346 5.99592C37.8611 5.93742 37.8317 5.82043 37.9493 5.65957C38.2435 5.2501 38.5377 4.84063 38.8319 4.41653C38.9643 4.22642 39.0966 4.03631 39.229 3.86082C39.5379 3.43673 39.9203 3.20274 40.2587 3.21737C40.5528 3.21737 40.847 3.21737 41.1412 3.21737C41.4648 3.21737 41.6413 3.5391 41.5089 3.94857C41.406 4.25567 41.2883 4.56277 41.1706 4.86988C41.0382 5.20623 40.9206 5.54258 40.7882 5.87893C40.6852 6.11291 40.5822 6.2299 40.4352 6.24453C40.2881 6.25915 40.2439 6.12754 40.3322 5.90818C40.494 5.46946 40.6852 5.03074 40.847 4.5774C40.9059 4.41653 40.95 4.25567 40.9941 4.10943C40.9647 4.10943 40.95 4.10943 40.9206 4.10943C40.8764 4.18255 40.8176 4.27029 40.7882 4.34341C40.1263 5.84968 39.4644 7.34132 38.8025 8.84759C38.7289 9.02308 38.6259 9.14007 38.4789 9.19857C38.3318 9.25706 38.2288 9.22781 38.2141 9.06695C38.2141 8.99383 38.2435 8.89146 38.2876 8.80372C38.6259 8.02865 38.979 7.25358 39.3173 6.49313C39.3173 6.43464 39.3467 6.36152 39.3908 6.25915ZM40.4646 2.20832C40.2734 2.66166 40.3616 3.01263 40.7293 3.02726C41.0529 3.04188 41.5383 2.60316 41.7148 2.22294C41.8914 1.81347 41.8325 1.36013 41.4501 1.404C41.1265 1.36013 40.6117 1.82809 40.4646 2.20832ZM41.0529 2.22294C40.8911 2.47155 40.7588 2.55929 40.6558 2.50079C40.5675 2.4423 40.5675 2.32531 40.7146 2.12057C40.8323 2.14982 41.0382 2.0182 41.0529 2.22294ZM41.5383 2.1352C41.5678 2.25219 41.4942 2.36918 41.3912 2.42768C41.303 2.48617 41.1853 2.50079 41.1265 2.47155C41.0382 2.42768 41.0971 2.28144 41.2 2.12057C41.3177 2.1352 41.4354 2.1352 41.5383 2.1352ZM37.9052 6.20066C37.9052 6.17141 37.9052 6.14216 37.8905 6.12754C37.8758 6.11291 37.8611 6.09829 37.8022 6.06904C37.008 7.07809 36.2725 8.10177 35.5076 9.12545C35.5223 9.18394 35.5518 9.22781 35.5665 9.27169C35.7577 9.15469 37.5816 6.75637 37.9052 6.20066Z" fill="#707886"/>
<path d="M26.8881 6.06906C26.7116 6.01057 26.594 5.87895 26.5057 5.68884C26.2557 5.16238 25.9762 4.63591 25.7114 4.10945C25.682 4.05096 25.6085 3.99246 25.5643 3.93396C25.5496 3.93396 25.5349 3.94859 25.5202 3.94859C25.5496 4.02171 25.579 4.10945 25.6085 4.18257C26.241 5.61572 26.8881 7.06349 27.5206 8.49664C27.5501 8.55513 27.5795 8.61363 27.5942 8.67213C27.6677 8.87686 27.6236 9.05235 27.4912 9.05235C27.3441 9.05235 27.1382 8.89149 27.0352 8.6575C26.9764 8.52589 26.9176 8.39427 26.8587 8.24803C26.5793 7.60458 26.2851 6.96112 26.0056 6.31767C25.9762 6.24455 25.9321 6.17143 25.9026 6.06906C25.8438 6.06906 25.7997 6.06906 25.7408 6.05444C25.7556 6.11293 25.7703 6.15681 25.785 6.18605C26.1527 7.005 26.5204 7.82394 26.8881 8.64288C26.9617 8.80374 26.9764 8.93536 26.8734 8.97923C26.7999 9.00848 26.6822 8.99385 26.594 8.93536C26.5057 8.87686 26.4027 8.73062 26.3586 8.62825C25.6967 7.13661 25.0348 5.65959 24.3876 4.16795C24.3435 4.0802 24.2847 3.99246 24.2405 3.91934C24.2111 3.91934 24.1964 3.91934 24.167 3.91934C24.1817 4.02171 24.1964 4.12408 24.2405 4.22644C24.4023 4.66516 24.5788 5.10388 24.7553 5.52798C24.8436 5.74733 24.9318 5.98132 24.7553 6.05444C24.4317 5.96669 24.4023 5.82045 24.2552 5.42561C24.064 4.95764 23.9169 4.48967 23.7257 4.02171C23.5492 3.59761 23.5639 3.23201 23.814 3.08578C23.8728 3.05653 23.9905 3.05653 24.0787 3.11502C24.4906 3.39288 24.8583 3.37825 25.0054 3.1004C25.0348 3.05653 25.1084 3.0419 25.1819 3.05653C25.5202 3.14427 25.8879 3.50987 26.0792 3.90472C26.3733 4.48968 26.6822 5.07463 26.9911 5.67422C27.0499 5.87895 27.0499 5.99594 26.8881 6.06906ZM24.5053 3.12965C24.873 3.11502 24.9466 2.7933 24.77 2.38383C24.5788 1.93048 24.1817 1.60876 23.8287 1.59413C23.4462 1.59413 23.4168 2.0036 23.5933 2.35458C23.7845 2.80792 24.1817 3.14427 24.5053 3.12965ZM27.2559 6.11293C27.0647 6.08369 26.9617 6.28842 27.0647 6.53703C27.403 7.3121 27.7413 8.08717 28.0943 8.87686C28.1237 8.94998 28.212 9.00848 28.2708 9.0816C28.3002 9.0816 28.3149 9.0816 28.3443 9.06697C28.3296 8.97923 28.3296 8.89149 28.2855 8.78912C27.9913 8.11642 27.6824 7.44371 27.3883 6.77101C27.3294 6.6394 27.2117 6.46391 27.3441 6.42004C27.4765 6.37617 27.5648 6.56628 27.6677 6.69789C27.7266 6.69789 27.7707 6.69789 27.8295 6.69789C27.7266 6.39079 27.4765 6.14218 27.2559 6.11293Z" fill="#707886"/>
<path d="M32.7276 17.8119C32.9188 17.9728 33.2718 17.8119 33.5072 17.8997C33.4336 18.0606 33.3748 18.2068 33.3013 18.3677C33.1836 18.6163 33.0659 18.8795 32.9629 19.1281C32.8306 19.4206 32.8894 19.5961 33.0806 19.5961C33.2424 19.5961 33.4778 19.3767 33.5807 19.1135C33.7425 18.7625 33.8896 18.4115 34.0514 18.0459C34.0808 17.9874 34.1102 17.9436 34.1397 17.8558C34.3309 17.8558 34.5074 17.8558 34.728 17.8558C34.8163 17.6365 34.8898 17.4317 34.9634 17.227C35.2281 16.4373 35.4929 15.6476 35.7577 14.8579C35.8459 14.6093 35.9047 14.3607 35.993 14.1121C36.0813 13.8781 36.0665 13.7319 35.9195 13.6734C35.7577 13.6002 35.5664 13.6295 35.3458 13.8196C35.2281 13.9073 35.1252 14.0536 35.0369 14.1852C34.8016 14.58 34.5221 14.8579 34.1691 15.0188C33.4925 15.3405 33.0071 16.1741 33.1542 16.7298C33.1983 16.9053 33.1689 17.0807 33.0071 17.3147C32.9335 17.4902 32.8306 17.6365 32.7276 17.8119ZM35.6106 14.4631C35.6253 14.4631 35.6253 14.4777 35.64 14.4777C35.4488 14.7702 35.2723 15.0626 35.0663 15.3405C34.6986 15.8231 34.0661 16.2179 33.7278 16.1741C33.669 16.1594 33.6101 16.0571 33.6249 15.9986C33.6543 15.9108 33.7866 15.8085 33.8749 15.7207C33.9043 15.6915 33.9632 15.6915 34.0073 15.6768C34.4044 15.5745 34.7427 15.2966 35.0369 14.8433C35.1399 14.6824 35.2134 14.5069 35.3017 14.3461C35.3899 14.1998 35.4929 14.0975 35.6106 14.0975C35.7282 14.0975 35.7429 14.1998 35.6694 14.3607C35.64 14.4046 35.6253 14.4338 35.6106 14.4631ZM36.7873 12.6497C36.5814 13.1177 36.2136 13.4248 35.8312 13.4248C35.4929 13.4248 35.3899 13.0884 35.5811 12.6497C35.7871 12.1963 36.2725 11.8307 36.5225 11.8892C36.8903 11.8892 36.9932 12.1963 36.7873 12.6497Z" fill="#707886"/>
<path d="M12.0613 13.7316C12.3849 13.7316 12.4879 13.4099 12.3114 12.9858C12.0907 12.4886 11.7083 12.2254 11.3847 12.2108C11.0758 12.1961 10.9434 12.6056 11.12 12.9712C11.3406 13.3953 11.723 13.7316 12.0613 13.7316Z" fill="#707886"/>
<path d="M9.36959 13.3808C9.69319 13.3808 9.81086 13.0152 9.63436 12.6057C9.45785 12.1816 8.98716 11.8014 8.66356 11.816C8.33996 11.816 8.22229 12.1816 8.41351 12.6057C8.61943 13.0444 9.03129 13.3954 9.36959 13.3808Z" fill="#707886"/>
<path d="M9.70794 16.6712C9.84032 16.6859 9.88445 16.5396 9.8109 16.3495C9.60498 15.8084 9.39905 15.2673 9.19313 14.7263C9.16371 14.6531 9.17842 14.5946 9.17842 14.5215C9.19313 14.5361 9.22254 14.5361 9.23725 14.5508C9.28138 14.6385 9.32551 14.7116 9.35492 14.7994C9.78149 15.7499 10.1933 16.7151 10.6199 17.6657L10.8994 17.0515C10.87 16.9783 10.8405 16.9052 10.8111 16.8467C10.7817 16.7882 10.767 16.7444 10.7376 16.6712C10.7964 16.6712 10.8405 16.6859 10.8994 16.6859C10.9288 16.759 10.9582 16.8175 10.9876 16.876L11.2377 16.291C11.1494 16.0863 11.0465 15.8669 10.9582 15.6622C10.8258 15.3551 10.6934 15.048 10.5611 14.7555C10.5316 14.6824 10.5316 14.6239 10.5169 14.5508C10.5316 14.5508 10.5464 14.5508 10.5758 14.5508C10.6199 14.6093 10.6787 14.6678 10.7229 14.7263C10.8847 14.9895 11.0465 15.2527 11.2083 15.5013C11.2818 15.6329 11.3554 15.7499 11.4436 15.8815L11.826 15.0334C11.7966 14.931 11.7672 14.814 11.7378 14.7116C11.7231 14.6531 11.7378 14.5946 11.7378 14.5361C11.7672 14.5508 11.7819 14.5508 11.8113 14.5654C11.8407 14.6385 11.8849 14.7116 11.9143 14.7847C11.9143 14.7994 11.9143 14.7994 11.929 14.814L12.3114 13.9366C12.1496 13.9951 11.929 13.9512 11.6789 13.7757C11.473 13.6295 11.3848 13.6587 11.2818 13.7464C11.1788 13.8342 11.1347 13.9658 11.1641 14.1559C11.2083 14.4191 11.2671 14.6824 11.3406 14.9895C11.1641 14.7263 11.0465 14.5069 10.8994 14.3022C10.6493 13.9366 10.3551 13.688 10.0315 13.6587C9.69323 13.6295 9.34022 13.6148 9.03133 13.6295C8.64889 13.6587 8.51651 13.9219 8.63418 14.3899C8.69302 14.5946 8.79598 14.8286 8.86953 15.0334C9.03133 15.4428 9.19313 15.8669 9.34022 16.2764C9.42847 16.4811 9.56085 16.642 9.70794 16.6712Z" fill="#707886"/>
<path d="M29.168 13.337C29.5505 13.3223 29.624 13.0006 29.4328 12.5765C29.2416 12.1378 28.8445 11.7722 28.4767 11.8015C28.1237 11.743 28.0502 12.1963 28.212 12.5765C28.4326 12.986 28.8297 13.337 29.168 13.337Z" fill="#707886"/>
<path d="M29.5799 16.335C29.5064 16.1449 29.4328 15.9547 29.3593 15.7646C29.2122 15.399 29.0651 15.0188 28.9327 14.6532C28.918 14.5947 28.9327 14.5508 28.9327 14.507C28.9474 14.507 28.9621 14.5216 28.9916 14.5216C29.021 14.5947 29.0651 14.6678 29.0945 14.741C29.3004 15.2089 29.5064 15.6769 29.7123 16.1449L29.9918 15.516C29.7417 14.9603 29.5064 14.4192 29.2563 13.8635C29.2122 13.7758 29.1828 13.7027 29.1386 13.5857C28.8739 13.5857 28.5944 13.5272 28.4473 13.7027C28.2708 13.9074 28.3149 14.2437 28.462 14.6386C28.6532 15.1212 28.8298 15.6038 29.0063 16.0864C29.0357 16.1595 29.0651 16.2326 29.0945 16.3057C29.1975 16.5251 29.3152 16.6421 29.4475 16.6567C29.4622 16.6567 29.477 16.6567 29.4917 16.6567L29.5946 16.4227C29.5799 16.3788 29.5799 16.3642 29.5799 16.335Z" fill="#707886"/>
<path d="M29.3739 13.5709C29.4033 13.644 29.4327 13.7171 29.4622 13.7903C29.6828 14.2729 29.8887 14.7701 30.1094 15.2527L30.3447 14.7408C30.33 14.7116 30.3153 14.6823 30.2859 14.6531C30.2564 14.5946 30.2417 14.5361 30.227 14.463C30.2417 14.463 30.2711 14.463 30.2859 14.463C30.33 14.5068 30.3594 14.5507 30.4035 14.6092L30.58 14.1997L30.5653 14.1851C30.3153 13.8195 29.9328 13.5855 29.6387 13.5855C29.5651 13.5709 29.4769 13.5709 29.3739 13.5709Z" fill="#707886"/>
<path d="M20.1808 4.1824C20.1367 4.22628 20.1073 4.25552 20.0632 4.2994C19.4307 4.95747 19.0482 5.68867 18.7835 6.44912C18.7393 6.58073 18.7541 6.66848 18.8717 6.66848C19.0335 6.6831 19.1659 6.56611 19.2983 6.3175C19.4013 6.09814 19.5042 5.86416 19.6366 5.6448C19.7249 5.46931 19.8425 5.30845 19.9602 5.13296C19.8131 5.49856 19.6513 5.84953 19.5042 6.20051C19.2542 6.84396 18.9894 7.48742 18.7688 8.13087C18.6217 8.55497 18.5334 8.96444 18.4452 9.37391C18.3863 9.59327 18.4746 9.69563 18.6364 9.66639C18.7688 9.65176 18.9159 9.50552 19.0188 9.30079C19.1365 9.0668 19.2542 8.8182 19.3718 8.58421C19.5631 8.17474 19.7543 7.75065 19.9602 7.34118C19.9896 7.28268 20.0484 7.20956 20.0926 7.15107C20.1073 7.15107 20.122 7.16569 20.1367 7.16569C20.0484 7.39967 19.9602 7.63366 19.8719 7.85302C19.666 8.35023 19.4601 8.84745 19.2689 9.35928C19.2247 9.46165 19.2542 9.59327 19.313 9.65176C19.3865 9.72488 19.5336 9.66639 19.666 9.53477C19.7543 9.4324 19.8425 9.31541 19.9161 9.21304C20.4456 8.43797 20.8722 7.63366 21.2546 6.82934C21.2693 6.80009 21.284 6.75622 21.2987 6.72697L20.1808 4.1824Z" fill="#707886"/>
<path d="M75.5897 0.160919H73.3687V12.6352H75.5897V0.160919Z" fill="#46566B"/>
<path d="M118.231 0.160919V7.12192C118.231 8.0871 118.113 8.92067 117.878 9.63724C117.643 10.3538 117.29 10.9388 116.79 11.4067C116.29 11.8747 115.657 12.2257 114.877 12.4597C114.098 12.6936 113.142 12.796 112.024 12.796C110.921 12.796 109.979 12.679 109.2 12.4597C108.42 12.2257 107.773 11.8893 107.288 11.4067C106.788 10.9388 106.434 10.3392 106.199 9.63724C105.964 8.92067 105.846 8.0871 105.846 7.12192V0.160919H108.141V7.12192C108.141 7.75075 108.214 8.29184 108.347 8.73056C108.479 9.16928 108.7 9.5495 109.009 9.82735C109.317 10.1198 109.715 10.3246 110.229 10.4562C110.744 10.5878 111.362 10.6463 112.112 10.6463C112.862 10.6463 113.48 10.5878 113.995 10.4562C114.495 10.3246 114.907 10.1198 115.216 9.82735C115.525 9.53487 115.745 9.16928 115.878 8.73056C116.01 8.27721 116.084 7.75075 116.084 7.12192V0.160919H118.231Z" fill="#46566B"/>
<path d="M135.794 12.6205L133.352 3.86072L129.734 11.977C129.601 12.2403 129.454 12.445 129.263 12.5912C129.086 12.7375 128.851 12.8106 128.586 12.8106C128.057 12.8106 127.674 12.5327 127.439 11.9916L123.85 3.87535L121.408 12.6351H119.217L122.497 0.906685C122.644 0.307103 123.012 0.014624 123.6 0.014624C123.835 0.014624 124.056 0.0731198 124.262 0.204735C124.468 0.336351 124.615 0.511838 124.732 0.760446L128.66 9.57869L132.602 0.731198C132.808 0.233983 133.175 0 133.676 0C134.22 0 134.573 0.292479 134.749 0.892061L138.015 12.6205H135.794Z" fill="#46566B"/>
<path d="M94.3142 12.6205C93.9759 12.6205 93.6817 12.5328 93.4317 12.3427C93.1816 12.1526 93.0492 11.8747 93.0492 11.5091C93.0492 11.1874 93.1963 10.8803 93.5052 10.5878L100.624 2.23752H93.211L92.2255 0.160919H102.787C103.11 0.160919 103.404 0.248663 103.669 0.438774C103.919 0.628886 104.052 0.906741 104.052 1.27234C104.052 1.59407 103.904 1.90117 103.596 2.19365L96.3146 10.5439H103.993L104.787 12.6205H94.3142Z" fill="#46566B"/>
<path d="M87.7688 8.83282C88.5925 8.52572 89.2397 8.01388 89.7104 7.31193C90.1663 6.60998 90.4017 5.73254 90.4017 4.69424C90.4017 3.99229 90.2987 3.36346 90.0928 2.80775C89.8869 2.25204 89.578 1.76945 89.1808 1.37461C88.7837 0.97976 88.2983 0.672657 87.7246 0.467921C87.151 0.263186 86.5038 0.146194 85.783 0.146194H78.2079V12.6204H80.4142V9.15455H80.4584H85.2241L88.4454 12.6204H91.6078L87.7688 8.83282ZM85.7683 7.23881H85.2241H80.4584H80.4142V2.33979H85.7683C86.5332 2.33979 87.1363 2.5299 87.5628 2.92475C87.9894 3.31959 88.21 3.91918 88.21 4.73812C88.21 5.55706 88.0041 6.17126 87.5923 6.59536C87.1804 7.01945 86.5773 7.23881 85.7683 7.23881Z" fill="#46566B"/>
<path d="M69.4266 0.160818L64.2343 9.75413L62.3515 6.08352L65.5728 0.160818H63.4694L61.2925 3.99229L59.3068 0.160818H56.6297L59.9393 6.36138L58.0124 9.75413L52.8495 0.160818H50.1872L56.7768 12.1086C57.0416 12.5619 57.424 12.7959 57.9388 12.7959C58.1742 12.7959 58.3948 12.7374 58.586 12.6204C58.7773 12.5034 58.9538 12.328 59.0714 12.1086L61.0572 8.4526L63.0282 12.1086C63.1605 12.3426 63.3223 12.5034 63.5136 12.6204C63.7195 12.7374 63.9254 12.7959 64.1608 12.7959C64.3961 12.7959 64.6167 12.7374 64.8227 12.6204C65.0286 12.5034 65.1904 12.328 65.3228 12.1086L71.9124 0.146194H69.4266V0.160818Z" fill="#46566B"/>
<path d="M60.5422 20.9417V16.7885H61.2924V20.9417H60.5422Z" fill="#707886"/>
<path d="M70.5739 20.9416V20.2104H73.7952C74.0011 20.2104 74.1482 20.1666 74.2659 20.0642C74.3688 19.9618 74.4277 19.8302 74.4277 19.6693C74.4277 19.4939 74.3688 19.3622 74.2659 19.2599C74.1629 19.1721 74.0011 19.1283 73.7952 19.1283H71.8242C71.6182 19.1283 71.4417 19.099 71.2799 19.0405C71.1181 18.982 70.9711 18.8943 70.8681 18.7919C70.7504 18.6895 70.6622 18.5579 70.6033 18.4117C70.5445 18.2654 70.5151 18.1046 70.5151 17.9437C70.5151 17.7829 70.5445 17.622 70.6033 17.4758C70.6622 17.3295 70.7504 17.2125 70.8534 17.1102C70.9711 17.0078 71.1034 16.92 71.2652 16.8615C71.427 16.8031 71.6182 16.7738 71.8389 16.7738H74.9278V17.505H71.8389C71.6624 17.505 71.53 17.5489 71.4417 17.6366C71.3535 17.7244 71.2947 17.856 71.2947 18.0168C71.2947 18.1777 71.3388 18.2947 71.4417 18.3824C71.5447 18.4702 71.6624 18.5141 71.8389 18.5141H73.8099C74.2512 18.5141 74.5748 18.6164 74.8101 18.8065C75.0307 19.0113 75.1484 19.3037 75.1484 19.7132C75.1484 19.8887 75.119 20.0496 75.0602 20.1958C75.0013 20.342 74.9278 20.4737 74.8101 20.576C74.6924 20.6784 74.56 20.7661 74.3982 20.8246C74.2364 20.8831 74.0305 20.9124 73.8099 20.9124H70.5739V20.9416Z" fill="#707886"/>
<path d="M76.2957 20.9417V16.7885H77.0458V20.9417H76.2957Z" fill="#707886"/>
<path d="M79.002 17.8999V20.9417H78.2813V17.1687C78.2813 17.0371 78.3107 16.9347 78.3843 16.8469C78.4578 16.7738 78.5461 16.7299 78.6637 16.7299C78.7226 16.7299 78.7667 16.7446 78.8255 16.7592C78.8697 16.7884 78.9285 16.8177 78.9873 16.8762L82.0174 19.7864V16.7446H82.7381V20.5468C82.7381 20.6784 82.7087 20.7954 82.6352 20.8685C82.5616 20.9417 82.4734 20.9855 82.3704 20.9855C82.2527 20.9855 82.1351 20.927 82.0321 20.8247L79.002 17.8999Z" fill="#707886"/>
<path d="M83.9443 20.9417V16.7885H86.4302C86.7391 16.7885 87.0185 16.8324 87.2686 16.9348C87.5186 17.0372 87.7393 17.1688 87.9305 17.3589C88.1217 17.5344 88.2541 17.7537 88.3718 18.0023C88.4747 18.2509 88.5336 18.5288 88.5336 18.8359C88.5336 19.143 88.4747 19.4209 88.3718 19.6695C88.2688 19.9327 88.1217 20.1521 87.9305 20.3422C87.7393 20.5323 87.5186 20.6785 87.2686 20.7955C87.0185 20.8979 86.7391 20.9564 86.4302 20.9564H83.9443V20.9417ZM86.4302 20.2105C86.6214 20.2105 86.7979 20.1813 86.9597 20.1082C87.1215 20.0351 87.2686 19.9473 87.3863 19.8303C87.5039 19.7133 87.6069 19.5671 87.6657 19.3916C87.7393 19.2307 87.7687 19.0406 87.7687 18.8505C87.7687 18.6604 87.7393 18.4703 87.6657 18.3094C87.5922 18.1486 87.5039 18.0023 87.3863 17.8853C87.2686 17.7683 87.1215 17.6806 86.9597 17.6075C86.7979 17.5344 86.6214 17.5051 86.4302 17.5051H84.6798V20.2105H86.4302Z" fill="#707886"/>
<path d="M92.5344 20.9416C92.4167 20.9416 92.3138 20.9124 92.2402 20.8539C92.152 20.7954 92.1078 20.693 92.1078 20.576C92.1078 20.4737 92.152 20.3713 92.2549 20.2689L95.1085 17.4904H92.152V16.8031H95.9175C96.0352 16.8031 96.1234 16.8323 96.2117 16.8908C96.2999 16.9493 96.3441 17.0517 96.3441 17.1687C96.3441 17.271 96.2852 17.3734 96.197 17.4758L93.3434 20.2543H96.3293V20.9416H92.5344Z" fill="#707886"/>
<path d="M102.742 20.9416V20.2104H105.964C106.17 20.2104 106.317 20.1666 106.434 20.0642C106.537 19.9618 106.596 19.8302 106.596 19.6693C106.596 19.4939 106.537 19.3622 106.434 19.2599C106.331 19.1721 106.17 19.1283 105.964 19.1283H103.993C103.787 19.1283 103.61 19.099 103.448 19.0405C103.287 18.982 103.14 18.8943 103.037 18.7919C102.919 18.6895 102.831 18.5579 102.772 18.4117C102.713 18.2654 102.684 18.1046 102.684 17.9437C102.684 17.7829 102.713 17.622 102.772 17.4758C102.831 17.3295 102.919 17.2125 103.022 17.1102C103.14 17.0078 103.272 16.92 103.434 16.8615C103.596 16.8031 103.787 16.7738 104.007 16.7738H107.096V17.505H104.007C103.831 17.505 103.699 17.5489 103.61 17.6366C103.522 17.7244 103.463 17.856 103.463 18.0168C103.463 18.1777 103.507 18.2947 103.61 18.3824C103.713 18.4702 103.831 18.5141 104.007 18.5141H105.978C106.42 18.5141 106.743 18.6164 106.979 18.8065C107.199 19.0113 107.317 19.3037 107.317 19.7132C107.317 19.8887 107.288 20.0496 107.229 20.1958C107.17 20.342 107.096 20.4737 106.979 20.576C106.861 20.6784 106.729 20.7661 106.567 20.8246C106.405 20.8831 106.199 20.9124 105.978 20.9124H102.742V20.9416Z" fill="#707886"/>
<path d="M112.627 20.9417L111.98 19.8887H109.95L110.303 19.3038H111.627L110.671 17.7536L108.714 20.9417H107.861L110.332 16.9639C110.376 16.8908 110.421 16.8323 110.479 16.7884C110.538 16.7446 110.612 16.7299 110.685 16.7299C110.774 16.7299 110.832 16.7446 110.891 16.7884C110.95 16.8323 110.994 16.8908 111.038 16.9639L113.509 20.9417H112.627Z" fill="#707886"/>
<path d="M119.82 20.9417L118.996 18.0169L117.775 20.7223C117.731 20.81 117.672 20.8832 117.613 20.927C117.554 20.9709 117.481 21.0001 117.393 21.0001C117.216 21.0001 117.084 20.9124 117.01 20.7223L115.804 18.0169L114.98 20.9417H114.245L115.348 17.0224C115.392 16.8177 115.525 16.7299 115.716 16.7299C115.789 16.7299 115.863 16.7446 115.936 16.7884C116.01 16.8323 116.054 16.8908 116.098 16.9786L117.422 19.918L118.746 16.9786C118.819 16.8177 118.937 16.7299 119.114 16.7299C119.29 16.7299 119.423 16.8323 119.481 17.0224L120.585 20.9417H119.82Z" fill="#707886"/>
<path d="M126.895 20.9417L126.071 18.0169L124.85 20.7223C124.806 20.81 124.747 20.8832 124.688 20.927C124.629 20.9709 124.556 21.0001 124.468 21.0001C124.291 21.0001 124.159 20.9124 124.085 20.7223L122.879 18.0169L122.055 20.9417H121.32L122.423 17.0224C122.467 16.8177 122.6 16.7299 122.791 16.7299C122.864 16.7299 122.938 16.7446 123.011 16.7884C123.085 16.8323 123.129 16.8908 123.173 16.9786L124.497 19.918L125.821 16.9786C125.894 16.8177 126.012 16.7299 126.189 16.7299C126.365 16.7299 126.498 16.8323 126.556 17.0224L127.66 20.9417H126.895Z" fill="#707886"/>
<path d="M128.601 20.9417V16.7885H132.44V17.5197H129.351V20.2252H132.455V20.9564H128.601V20.9417ZM129.895 19.143V18.5288H132.278V19.143H129.895Z" fill="#707886"/>
<path d="M134.264 17.8999V20.9417H133.543V17.1687C133.543 17.0371 133.573 16.9347 133.646 16.8469C133.72 16.7738 133.808 16.7299 133.926 16.7299C133.984 16.7299 134.029 16.7446 134.087 16.7592C134.132 16.7884 134.19 16.8177 134.249 16.8762L137.279 19.7864V16.7446H138V20.5468C138 20.6784 137.971 20.7954 137.897 20.8685C137.823 20.9417 137.735 20.9855 137.632 20.9855C137.515 20.9855 137.397 20.927 137.294 20.8247L134.264 17.8999Z" fill="#707886"/>
<path d="M101.581 16.7885V19.1137C101.581 19.4355 101.536 19.7133 101.463 19.9473C101.389 20.1813 101.257 20.386 101.095 20.5323C100.933 20.6931 100.713 20.8101 100.448 20.8832C100.183 20.9564 99.8596 21.0002 99.4919 21.0002C99.1242 21.0002 98.8006 20.9564 98.5358 20.8832C98.271 20.8101 98.0504 20.6931 97.8886 20.5323C97.7268 20.3714 97.5944 20.1813 97.5209 19.9473C97.4473 19.7133 97.4032 19.4355 97.4032 19.1137V16.7885H98.1828V19.1137C98.1828 19.3185 98.2122 19.5086 98.2563 19.6548C98.3004 19.8011 98.374 19.9327 98.477 20.0204C98.5799 20.1228 98.7123 20.1813 98.8888 20.2252C99.0653 20.269 99.2712 20.2837 99.5213 20.2837C99.7713 20.2837 99.992 20.269 100.154 20.2252C100.33 20.1813 100.463 20.1082 100.566 20.0204C100.669 19.9327 100.742 19.8011 100.786 19.6548C100.83 19.5086 100.86 19.3331 100.86 19.1137V16.7885H101.581Z" fill="#707886"/>
<path d="M65.7788 19.684C66.0582 19.5816 66.2789 19.4061 66.426 19.1721C66.5878 18.9382 66.6613 18.6457 66.6613 18.2947C66.6613 18.0607 66.6319 17.856 66.5583 17.6659C66.4848 17.4758 66.3818 17.3149 66.2494 17.1833C66.1171 17.0517 65.9553 16.9493 65.7641 16.8762C65.5728 16.8031 65.3522 16.7738 65.1021 16.7738H62.5428V20.927H63.2929V19.7717H63.3077H64.9256L66.0141 20.927H67.0732L65.7788 19.684ZM65.1021 19.1429H64.9256H63.3077H63.2929V17.505H65.1021C65.3669 17.505 65.5581 17.5635 65.7052 17.6951C65.8523 17.8267 65.9259 18.0315 65.9259 18.2947C65.9259 18.5726 65.8523 18.7773 65.7199 18.9089C65.5875 19.0698 65.3816 19.1429 65.1021 19.1429Z" fill="#707886"/>
<path d="M58.9978 16.7884L57.2475 19.9764L56.615 18.748L57.7035 16.7738H56.9974L56.262 18.0461L55.6001 16.7738H54.7028L55.8207 18.8358L55.1735 19.9618L53.4378 16.7738H52.5112L54.7322 20.7515C54.8205 20.8978 54.9529 20.9855 55.1294 20.9855C55.2029 20.9855 55.2765 20.9709 55.35 20.927C55.4236 20.8831 55.4677 20.8246 55.5118 20.7515L56.1737 19.5377L56.8356 20.7515C56.8797 20.8246 56.9386 20.8831 56.9974 20.927C57.071 20.9709 57.1445 20.9855 57.2181 20.9855C57.2916 20.9855 57.3651 20.9709 57.4387 20.927C57.5122 20.8831 57.5564 20.8246 57.6005 20.7515L59.8216 16.7738H58.9978V16.7884Z" fill="#707886"/>
</g>
<defs>
<clipPath id="clip0_12166_63">
<rect width="138" height="21" fill="white"/>
</clipPath>
</defs>
</svg>
