<svg width="149" height="32" viewBox="0 0 149 32" fill="none" xmlns="http://www.w3.org/2000/svg">
<g clip-path="url(#clip0_12166_732)">
<path d="M44.7221 17.5473C44.3062 16.9798 39.9511 11.4231 39.3884 10.7374C36.9906 7.80539 33.8344 6.19751 30.458 6.19751C30.409 6.19751 30.3846 6.19751 30.3356 6.19751C28.6719 6.22116 27.0815 6.62313 25.5646 7.40342C24.0477 8.18372 22.702 9.31869 21.5765 10.7611C19.9862 12.7946 18.4447 14.8517 17.0746 16.6724C15.4109 18.895 13.6737 21.1886 12.7684 22.2527C19.6192 15.4192 24.0966 10.1226 29.5038 9.90983C29.7974 9.86253 30.091 9.83889 30.3846 9.83889C32.66 9.81524 34.8375 10.9502 36.5502 13.031C37.0885 13.6931 41.3947 19.2261 41.7861 19.7226C42.8382 21.1414 42.8871 22.3 41.9329 23.1985C40.7096 24.3571 37.7491 24.8773 35.4003 22.8911C34.7641 22.3 31.0452 17.7128 27.5219 13.2202C27.106 13.5512 26.7145 13.9295 26.372 14.4024C25.9561 14.9226 25.5401 15.4665 25.0997 16.0576C25.8582 17.0034 26.8369 18.2803 27.8645 19.5571C32.1951 24.9719 32.7823 25.4684 33.027 25.6813C34.7397 27.1236 36.8927 27.9039 39.0948 27.8803C41.15 27.8566 43.1318 27.1236 44.4775 25.8704C45.603 24.83 46.2391 23.5295 46.3125 22.0872C46.337 20.5975 45.8232 19.0133 44.7221 17.5473Z" fill="#986DC3"/>
<path d="M12.7686 22.2542C12.5729 22.467 12.4261 22.6325 12.3037 22.7507C12.2793 22.7744 12.2548 22.798 12.2059 22.8216L12.1814 22.8453L12.2059 22.8216C9.75918 24.8315 6.8721 24.6896 5.42855 23.3655C4.37648 22.396 4.42541 21.0483 5.52642 19.5822C6.40722 18.4236 9.97939 13.6709 10.4687 13.0561C12.7197 10.2896 16.0961 9.20194 19.13 10.1241C19.3257 9.86401 19.5459 9.60391 19.7417 9.34382C20.3533 8.56352 21.0384 7.85416 21.7479 7.21574C20.231 6.50638 18.5917 6.12805 16.928 6.12805C16.0472 6.12805 15.1664 6.22263 14.31 6.43544C11.7165 7.05022 9.39218 8.53987 7.6061 10.7389C6.96996 11.4955 2.63933 17.3123 2.5904 17.3832C1.46492 18.8729 0.902183 20.5044 1.00005 22.065C1.09792 23.5547 1.78299 24.9497 2.90846 26.0138C4.30308 27.2906 6.28489 28.0236 8.36457 27.9763C10.6155 27.9527 12.7931 27.0778 14.6526 25.4936C15.6068 24.6896 17.1482 22.6561 20.0108 18.8492C21.3565 17.0522 22.8979 14.995 24.4638 12.9852C25.8339 11.2354 27.5711 10.1714 29.4795 9.88766C24.0723 10.1241 19.6193 15.4207 12.7686 22.2542Z" fill="#A3C400"/>
<path d="M63.1458 9.48571H66.1552L68.9934 18.2581L71.856 9.48571H76.0643L71.0486 24.0512H67.5009L64.6383 15.7281L61.8001 24.0512H58.2524L53.2367 9.48571H57.445L60.2832 18.2581L63.1458 9.48571ZM77.8504 9.48571V24.0512H81.9119V9.48571H77.8504ZM93.7049 9.34384V13.3635C93.4113 13.269 92.9464 13.2217 92.3592 13.198C91.2827 13.198 90.4508 13.5291 89.8147 14.1911C89.203 14.8532 88.8849 15.8227 88.8849 17.0759V24.0512H84.8234V9.48571H88.8849V11.2828C89.0073 11.1409 89.1785 10.9754 89.3743 10.7626C89.5945 10.5498 90.0593 10.266 90.7934 9.88768C91.5274 9.533 92.2858 9.34384 93.0932 9.34384H93.7049ZM107.724 9.48571V13.0562L100.507 20.4808H108.018V24.0512H95.3931V20.4808L102.611 13.0562H95.6867V9.48571H107.724ZM119.982 24.0512V22.5616C119.86 22.7034 119.689 22.869 119.493 23.0581C119.273 23.2473 118.808 23.5074 118.074 23.8384C117.34 24.1695 116.581 24.335 115.774 24.335C114.086 24.335 112.716 23.7675 111.664 22.6562C110.612 21.5448 110.073 20.0552 110.073 18.1872V9.48571H114.135V17.8089C114.135 18.6128 114.404 19.2985 114.942 19.8187C115.48 20.3626 116.166 20.6227 116.997 20.6227C117.927 20.6227 118.661 20.3389 119.199 19.7478C119.738 19.1567 120.007 18.3054 120.007 17.2177V9.48571H124.068V24.0512H119.982ZM144.939 24.0512V16.0118C144.939 15.0897 144.718 14.3567 144.253 13.8365C143.813 13.3163 143.226 13.0562 142.516 13.0562C141.733 13.0562 141.097 13.3635 140.583 13.9547C140.07 14.5695 139.825 15.397 139.825 16.4847V24.0512H135.763V16.0118C135.763 15.0897 135.543 14.3567 135.078 13.8365C134.614 13.3163 134.051 13.0562 133.341 13.0562C132.558 13.0562 131.898 13.3635 131.384 13.9547C130.87 14.5695 130.601 15.397 130.601 16.4847V24.0512H126.539V9.48571H130.601V11.2828C130.699 11.1172 130.846 10.9281 131.066 10.7153C131.262 10.4788 131.702 10.1714 132.387 9.7931C133.048 9.41478 133.782 9.20197 134.54 9.20197C135.127 9.20197 135.666 9.29655 136.179 9.46207C136.693 9.65123 137.085 9.84039 137.403 10.0768C137.696 10.3133 137.966 10.5498 138.186 10.8099C138.406 11.0463 138.553 11.2828 138.626 11.4483L138.748 11.7084C138.797 11.6611 138.846 11.5665 138.944 11.4483C139.042 11.33 139.238 11.1172 139.556 10.8335C139.874 10.5498 140.192 10.2897 140.559 10.0532C140.902 9.81675 141.366 9.62759 141.954 9.43842C142.516 9.24926 143.128 9.17833 143.74 9.17833C145.355 9.17833 146.651 9.72217 147.605 10.7862C148.56 11.8739 149.025 13.4581 149.025 15.5626V24.0512H144.939ZM79.8077 4C79.1227 4 78.5844 4.18916 78.1684 4.59113C77.7525 4.9931 77.5568 5.5133 77.5568 6.17537C77.5568 6.83744 77.7525 7.35764 78.1684 7.75961C78.5844 8.16158 79.1227 8.35074 79.8077 8.35074C80.5417 8.35074 81.1289 8.16158 81.5693 7.75961C82.0097 7.35764 82.2055 6.83744 82.2055 6.17537C82.2055 5.5133 81.9853 4.9931 81.5693 4.59113C81.1289 4.18916 80.5417 4 79.8077 4Z" fill="#A3C400"/>
</g>
<defs>
<clipPath id="clip0_12166_732">
<rect width="148" height="24" fill="white" transform="translate(1 4)"/>
</clipPath>
</defs>
</svg>
