<svg width="148" height="24" viewBox="0 0 148 24" fill="none" xmlns="http://www.w3.org/2000/svg">
<g clip-path="url(#clip0_12166_51)">
<path d="M64.1273 6.11818H67.0445L69.8059 14.5302L72.5814 6.11818H76.6513L71.7848 20.0783H68.3558L65.5789 12.1103L62.8174 20.077H59.373L54.5065 6.11681H58.5904L61.3519 14.5288L64.1273 6.11818Z" fill="white"/>
<path d="M81.8628 0.583728C82.2808 0.97288 82.4883 1.48947 82.4883 2.13349C82.4883 2.7775 82.2794 3.29409 81.8628 3.68324C81.4449 4.07239 80.8755 4.26697 80.1546 4.26697C79.4899 4.26697 78.9611 4.07239 78.5685 3.68324C78.1744 3.29409 77.978 2.7775 77.978 2.13349C77.978 1.48947 78.1772 0.97288 78.5755 0.583728C78.9738 0.194576 79.5011 0 80.1546 0C80.8755 0 81.4449 0.194576 81.8628 0.583728Z" fill="white"/>
<path d="M82.2051 6.11818H78.2628V20.0783H82.2051V6.11818Z" fill="white"/>
<path d="M93.6912 5.97841V9.8302C93.3967 9.73702 92.9606 9.68632 92.3813 9.67673C91.3477 9.67673 90.5287 9.996 89.927 10.6359C89.324 11.2758 89.0239 12.1939 89.0239 13.3887V20.077H85.0956V6.11818H89.0239V7.82826C89.1375 7.69808 89.2987 7.52954 89.5077 7.32126C89.7167 7.11298 90.1739 6.83756 90.8807 6.49363C91.5876 6.15106 92.3295 5.97978 93.1078 5.97978H93.6912V5.97841Z" fill="white"/>
<path d="M107.534 6.11818V9.53834L100.547 16.6568H107.832V20.077H95.593V16.6568L102.58 9.53834H95.8777V6.11818H107.534Z" fill="white"/>
<path d="M119.62 20.0783V18.6601C119.506 18.7903 119.345 18.9506 119.136 19.1397C118.927 19.3302 118.47 19.5796 117.763 19.8906C117.056 20.2017 116.314 20.3565 115.536 20.3565C113.903 20.3565 112.574 19.8207 111.544 18.7506C110.515 17.6804 110 16.2553 110 14.4754V6.11818H113.929V14.0999C113.929 14.8782 114.192 15.5222 114.718 16.032C115.244 16.5417 115.906 16.7966 116.704 16.7966C117.596 16.7966 118.306 16.5143 118.832 15.9484C119.358 15.3825 119.621 14.5768 119.621 13.5285V6.11818H123.55V20.0783H119.62Z" fill="white"/>
<path d="M144.058 20.0783V12.3885C144.058 11.4992 143.839 10.8017 143.403 10.2961C142.967 9.79047 142.407 9.53834 141.724 9.53834C140.965 9.53834 140.338 9.82746 139.846 10.4071C139.352 10.9867 139.106 11.791 139.106 12.8201V20.0783H135.177V12.3885C135.177 11.4992 134.957 10.8017 134.515 10.2961C134.074 9.79047 133.517 9.53834 132.844 9.53834C132.085 9.53834 131.457 9.82746 130.957 10.4071C130.459 10.9867 130.21 11.791 130.21 12.8201V20.0783H126.281V6.11818H130.21V7.82826C130.305 7.68027 130.451 7.49666 130.652 7.27879C130.851 7.06092 131.276 6.76631 131.925 6.39635C132.574 6.02638 133.27 5.84002 134.01 5.84002C134.57 5.84002 135.096 5.92635 135.59 6.09763C136.083 6.26891 136.477 6.46897 136.77 6.69506C137.065 6.92252 137.319 7.1541 137.532 7.38978C137.745 7.62546 137.89 7.83237 137.965 8.00914L138.079 8.25989C138.117 8.20371 138.181 8.11876 138.271 8.00228C138.361 7.88718 138.556 7.69124 138.855 7.41856C139.153 7.14588 139.473 6.89923 139.815 6.68136C140.157 6.46349 140.605 6.26891 141.16 6.09763C141.716 5.92635 142.292 5.84002 142.889 5.84002C144.464 5.84002 145.71 6.35661 146.626 7.38978C147.541 8.42295 147.999 9.94667 147.999 11.9568V20.077H144.058V20.0783Z" fill="white"/>
<path d="M45.6051 13.2956C45.1605 12.7118 40.6376 7.01431 40.0486 6.30452C37.5494 3.29681 34.2438 1.64566 30.725 1.64566C30.6858 1.64566 30.6451 1.64566 30.6044 1.64566C28.8766 1.66347 27.2021 2.08003 25.6299 2.883C24.0465 3.69145 22.6469 4.85342 21.4702 6.33604C19.8181 8.41609 18.2039 10.5304 16.7776 12.3953C14.6655 15.1605 12.4819 18.0188 11.775 18.608C9.21273 20.7484 6.12732 20.6072 4.62388 19.2342C3.53838 18.2435 3.57625 16.8623 4.72907 15.3482C5.63786 14.1561 9.3698 9.27523 9.87469 8.66684C12.221 5.84138 15.7356 4.71777 18.9191 5.66873C19.1323 5.39741 19.3413 5.13296 19.5446 4.87672C20.1884 4.0669 20.8896 3.33792 21.6455 2.69116C20.072 1.96082 18.3483 1.58811 16.6163 1.58811C15.7019 1.58811 14.7833 1.69225 13.8843 1.9019C11.1818 2.53358 8.76534 4.05594 6.89727 6.30452C6.24092 7.09516 1.69836 13.0517 1.65208 13.1106C0.475413 14.6562 -0.0925823 16.3225 0.0111996 17.9325C0.109372 19.4549 0.817613 20.8895 2.00409 21.9747C3.44722 23.2916 5.52286 24.0301 7.69807 23.9986C10.0472 23.9657 12.3206 23.0874 14.27 21.4582C15.2559 20.6346 16.8631 18.5532 19.8546 14.6384C21.2697 12.7858 22.8727 10.688 24.5037 8.63533C26.1432 6.57035 28.3254 5.42071 30.6479 5.39467C33.0181 5.36864 35.2956 6.53199 37.0698 8.66684C37.6349 9.34649 42.1298 15.0111 42.5281 15.5332C43.6333 16.9843 43.6837 18.1874 42.6768 19.1082C41.3921 20.2839 38.3067 20.8292 35.8566 18.7944C35.1806 18.197 31.3071 13.4792 27.6396 8.88471C27.2091 9.21768 26.8024 9.62191 26.4279 10.0933C26.0044 10.6263 25.5654 11.184 25.0942 11.7896C25.8781 12.7694 26.9146 14.0574 27.9776 15.3674C32.4879 20.9169 33.1022 21.428 33.3631 21.6459C35.1442 23.1271 37.3895 23.9287 39.6881 23.9095C41.8437 23.889 43.8885 23.1367 45.298 21.8459C46.462 20.7799 47.1254 19.437 47.2165 17.9599C47.3133 16.417 46.7551 14.8056 45.6051 13.2956Z" fill="white"/>
</g>
<defs>
<clipPath id="clip0_12166_51">
<rect width="148" height="24" fill="white"/>
</clipPath>
</defs>
</svg>
